<mxfile host="app.diagrams.net" agent="Mozilla/5.0 (Windows NT 10.0; Win64; x64) AppleWebKit/537.36 (KHTML, like Gecko) Chrome/129.0.0.0 Safari/537.36" version="24.7.15">
  <diagram id="R2lEEEUBdFMjLlhIrx00" name="Page-1">
    <mxGraphModel dx="1687" dy="918" grid="0" gridSize="10" guides="1" tooltips="1" connect="1" arrows="1" fold="1" page="1" pageScale="1" pageWidth="850" pageHeight="1100" math="0" shadow="0" extFonts="Permanent Marker^https://fonts.googleapis.com/css?family=Permanent+Marker">
      <root>
        <mxCell id="0" />
        <mxCell id="1" parent="0" />
        <mxCell id="C-vyLk0tnHw3VtMMgP7b-2" value="VBDI" style="shape=table;startSize=30;container=1;collapsible=1;childLayout=tableLayout;fixedRows=1;rowLines=0;fontStyle=1;align=center;resizeLast=1;" parent="1" vertex="1">
          <mxGeometry x="553" y="448" width="250" height="385" as="geometry" />
        </mxCell>
        <mxCell id="C-vyLk0tnHw3VtMMgP7b-3" value="" style="shape=partialRectangle;collapsible=0;dropTarget=0;pointerEvents=0;fillColor=none;points=[[0,0.5],[1,0.5]];portConstraint=eastwest;top=0;left=0;right=0;bottom=1;" parent="C-vyLk0tnHw3VtMMgP7b-2" vertex="1">
          <mxGeometry y="30" width="250" height="42" as="geometry" />
        </mxCell>
        <mxCell id="C-vyLk0tnHw3VtMMgP7b-4" value="PK" style="shape=partialRectangle;overflow=hidden;connectable=0;fillColor=none;top=0;left=0;bottom=0;right=0;fontStyle=1;" parent="C-vyLk0tnHw3VtMMgP7b-3" vertex="1">
          <mxGeometry width="30" height="42" as="geometry">
            <mxRectangle width="30" height="42" as="alternateBounds" />
          </mxGeometry>
        </mxCell>
        <mxCell id="C-vyLk0tnHw3VtMMgP7b-5" value="MAHS&#xa;SOKYHIEU" style="shape=partialRectangle;overflow=hidden;connectable=0;fillColor=none;top=0;left=0;bottom=0;right=0;align=left;spacingLeft=6;fontStyle=5;" parent="C-vyLk0tnHw3VtMMgP7b-3" vertex="1">
          <mxGeometry x="30" width="220" height="42" as="geometry">
            <mxRectangle width="220" height="42" as="alternateBounds" />
          </mxGeometry>
        </mxCell>
        <mxCell id="C-vyLk0tnHw3VtMMgP7b-6" value="" style="shape=partialRectangle;collapsible=0;dropTarget=0;pointerEvents=0;fillColor=none;points=[[0,0.5],[1,0.5]];portConstraint=eastwest;top=0;left=0;right=0;bottom=0;" parent="C-vyLk0tnHw3VtMMgP7b-2" vertex="1">
          <mxGeometry y="72" width="250" height="30" as="geometry" />
        </mxCell>
        <mxCell id="C-vyLk0tnHw3VtMMgP7b-7" value="FK1" style="shape=partialRectangle;overflow=hidden;connectable=0;fillColor=none;top=0;left=0;bottom=1;right=0;" parent="C-vyLk0tnHw3VtMMgP7b-6" vertex="1">
          <mxGeometry width="30" height="30" as="geometry">
            <mxRectangle width="30" height="30" as="alternateBounds" />
          </mxGeometry>
        </mxCell>
        <mxCell id="C-vyLk0tnHw3VtMMgP7b-8" value="MACOQUAN" style="shape=partialRectangle;overflow=hidden;connectable=0;fillColor=none;top=0;left=0;bottom=1;right=0;align=left;spacingLeft=6;" parent="C-vyLk0tnHw3VtMMgP7b-6" vertex="1">
          <mxGeometry x="30" width="220" height="30" as="geometry">
            <mxRectangle width="220" height="30" as="alternateBounds" />
          </mxGeometry>
        </mxCell>
        <mxCell id="C-vyLk0tnHw3VtMMgP7b-9" value="" style="shape=partialRectangle;collapsible=0;dropTarget=0;pointerEvents=0;fillColor=none;points=[[0,0.5],[1,0.5]];portConstraint=eastwest;top=0;left=0;right=0;bottom=0;" parent="C-vyLk0tnHw3VtMMgP7b-2" vertex="1">
          <mxGeometry y="102" width="250" height="283" as="geometry" />
        </mxCell>
        <mxCell id="C-vyLk0tnHw3VtMMgP7b-10" value="" style="shape=partialRectangle;overflow=hidden;connectable=0;fillColor=none;top=0;left=0;bottom=0;right=0;" parent="C-vyLk0tnHw3VtMMgP7b-9" vertex="1">
          <mxGeometry width="30" height="283" as="geometry">
            <mxRectangle width="30" height="283" as="alternateBounds" />
          </mxGeometry>
        </mxCell>
        <mxCell id="C-vyLk0tnHw3VtMMgP7b-11" value="NAMHINHTHANH&#xa;STTTRONGHS&#xa;TENLOAIVB&#xa;SOVB&#xa;KYHIEU&#xa;NGAYTHANGNAM&#xa;TENCOQUAN&#xa;TRICHYEU&#xa;NGONNGU&#xa;SOTRANG&#xa;GHICHU&#xa;CHUCVUNGUOIKY&#xa;HOTENNGUOIKY&#xa;NOINHAN&#xa;MACOQUANNHAN&#xa;TENCOQUANNHAN&#xa;MUCDOKHAN&#xa;SOLUONGPHATHANH&#xa;HANTRALOI" style="shape=partialRectangle;overflow=hidden;connectable=0;fillColor=none;top=0;left=0;bottom=0;right=0;align=left;spacingLeft=6;" parent="C-vyLk0tnHw3VtMMgP7b-9" vertex="1">
          <mxGeometry x="30" width="220" height="283" as="geometry">
            <mxRectangle width="220" height="283" as="alternateBounds" />
          </mxGeometry>
        </mxCell>
        <mxCell id="8GTq2mizvaAaw90g1Eo_-27" value="" style="edgeStyle=orthogonalEdgeStyle;rounded=0;orthogonalLoop=1;jettySize=auto;html=1;curved=1;endArrow=none;endFill=0;" edge="1" parent="1" source="8GTq2mizvaAaw90g1Eo_-6" target="8GTq2mizvaAaw90g1Eo_-26">
          <mxGeometry relative="1" as="geometry" />
        </mxCell>
        <mxCell id="8GTq2mizvaAaw90g1Eo_-47" value="" style="edgeStyle=orthogonalEdgeStyle;rounded=0;orthogonalLoop=1;jettySize=auto;html=1;endArrow=none;endFill=0;" edge="1" parent="1" source="8GTq2mizvaAaw90g1Eo_-6" target="8GTq2mizvaAaw90g1Eo_-46">
          <mxGeometry relative="1" as="geometry" />
        </mxCell>
        <mxCell id="8GTq2mizvaAaw90g1Eo_-6" value="HOSO" style="shape=table;startSize=30;container=1;collapsible=1;childLayout=tableLayout;fixedRows=1;rowLines=0;fontStyle=1;align=center;resizeLast=1;" vertex="1" parent="1">
          <mxGeometry x="281" y="29" width="250" height="278" as="geometry" />
        </mxCell>
        <mxCell id="8GTq2mizvaAaw90g1Eo_-7" value="" style="shape=partialRectangle;collapsible=0;dropTarget=0;pointerEvents=0;fillColor=none;points=[[0,0.5],[1,0.5]];portConstraint=eastwest;top=0;left=0;right=0;bottom=1;" vertex="1" parent="8GTq2mizvaAaw90g1Eo_-6">
          <mxGeometry y="30" width="250" height="42" as="geometry" />
        </mxCell>
        <mxCell id="8GTq2mizvaAaw90g1Eo_-8" value="PK" style="shape=partialRectangle;overflow=hidden;connectable=0;fillColor=none;top=0;left=0;bottom=0;right=0;fontStyle=1;" vertex="1" parent="8GTq2mizvaAaw90g1Eo_-7">
          <mxGeometry width="30" height="42" as="geometry">
            <mxRectangle width="30" height="42" as="alternateBounds" />
          </mxGeometry>
        </mxCell>
        <mxCell id="8GTq2mizvaAaw90g1Eo_-9" value="MAHS" style="shape=partialRectangle;overflow=hidden;connectable=0;fillColor=none;top=0;left=0;bottom=0;right=0;align=left;spacingLeft=6;fontStyle=5;" vertex="1" parent="8GTq2mizvaAaw90g1Eo_-7">
          <mxGeometry x="30" width="220" height="42" as="geometry">
            <mxRectangle width="220" height="42" as="alternateBounds" />
          </mxGeometry>
        </mxCell>
        <mxCell id="8GTq2mizvaAaw90g1Eo_-10" value="" style="shape=partialRectangle;collapsible=0;dropTarget=0;pointerEvents=0;fillColor=none;points=[[0,0.5],[1,0.5]];portConstraint=eastwest;top=0;left=0;right=0;bottom=0;shadow=1;" vertex="1" parent="8GTq2mizvaAaw90g1Eo_-6">
          <mxGeometry y="72" width="250" height="35" as="geometry" />
        </mxCell>
        <mxCell id="8GTq2mizvaAaw90g1Eo_-11" value="FK1" style="shape=partialRectangle;overflow=hidden;connectable=0;fillColor=none;top=0;left=0;bottom=1;right=0;strokeWidth=1;" vertex="1" parent="8GTq2mizvaAaw90g1Eo_-10">
          <mxGeometry width="30" height="35" as="geometry">
            <mxRectangle width="30" height="35" as="alternateBounds" />
          </mxGeometry>
        </mxCell>
        <mxCell id="8GTq2mizvaAaw90g1Eo_-12" value="MACOQUAN" style="shape=partialRectangle;overflow=hidden;connectable=0;top=1;left=1;bottom=1;right=1;align=left;spacingLeft=6;fillColor=default;strokeWidth=1;" vertex="1" parent="8GTq2mizvaAaw90g1Eo_-10">
          <mxGeometry x="30" width="220" height="35" as="geometry">
            <mxRectangle width="220" height="35" as="alternateBounds" />
          </mxGeometry>
        </mxCell>
        <mxCell id="8GTq2mizvaAaw90g1Eo_-13" value="" style="shape=partialRectangle;collapsible=0;dropTarget=0;pointerEvents=0;fillColor=none;points=[[0,0.5],[1,0.5]];portConstraint=eastwest;top=0;left=0;right=0;bottom=0;" vertex="1" parent="8GTq2mizvaAaw90g1Eo_-6">
          <mxGeometry y="107" width="250" height="171" as="geometry" />
        </mxCell>
        <mxCell id="8GTq2mizvaAaw90g1Eo_-14" value="" style="shape=partialRectangle;overflow=hidden;connectable=0;fillColor=none;top=0;left=0;bottom=0;right=0;" vertex="1" parent="8GTq2mizvaAaw90g1Eo_-13">
          <mxGeometry width="30" height="171" as="geometry">
            <mxRectangle width="30" height="171" as="alternateBounds" />
          </mxGeometry>
        </mxCell>
        <mxCell id="8GTq2mizvaAaw90g1Eo_-15" value="NAMHINHTHANH&#xa;SOKYHIEU&#xa;TIEUDE&#xa;THOIHANBAOQUAN&#xa;CHEDOSUDUNG&#xa;NGUOILAP&#xa;NGONNGU&#xa;THOIGIANBATDAU&#xa;THOIGIANKETTHUC&#xa;TONGSOVANBAN&#xa;TONGSOTRANG&#xa;GHICHU" style="shape=partialRectangle;overflow=hidden;connectable=0;fillColor=none;top=0;left=0;bottom=0;right=0;align=left;spacingLeft=6;" vertex="1" parent="8GTq2mizvaAaw90g1Eo_-13">
          <mxGeometry x="30" width="220" height="171" as="geometry">
            <mxRectangle width="220" height="171" as="alternateBounds" />
          </mxGeometry>
        </mxCell>
        <mxCell id="8GTq2mizvaAaw90g1Eo_-45" style="edgeStyle=orthogonalEdgeStyle;rounded=0;orthogonalLoop=1;jettySize=auto;html=1;exitX=0.5;exitY=0;exitDx=0;exitDy=0;entryX=0.5;entryY=1;entryDx=0;entryDy=0;endArrow=none;endFill=0;curved=1;" edge="1" parent="1" source="8GTq2mizvaAaw90g1Eo_-16" target="8GTq2mizvaAaw90g1Eo_-26">
          <mxGeometry relative="1" as="geometry" />
        </mxCell>
        <mxCell id="8GTq2mizvaAaw90g1Eo_-16" value="VBDI" style="shape=table;startSize=30;container=1;collapsible=1;childLayout=tableLayout;fixedRows=1;rowLines=0;fontStyle=1;align=center;resizeLast=1;" vertex="1" parent="1">
          <mxGeometry x="33" y="458" width="250" height="385" as="geometry" />
        </mxCell>
        <mxCell id="8GTq2mizvaAaw90g1Eo_-17" value="" style="shape=partialRectangle;collapsible=0;dropTarget=0;pointerEvents=0;fillColor=none;points=[[0,0.5],[1,0.5]];portConstraint=eastwest;top=0;left=0;right=0;bottom=1;" vertex="1" parent="8GTq2mizvaAaw90g1Eo_-16">
          <mxGeometry y="30" width="250" height="42" as="geometry" />
        </mxCell>
        <mxCell id="8GTq2mizvaAaw90g1Eo_-18" value="PK" style="shape=partialRectangle;overflow=hidden;connectable=0;fillColor=none;top=0;left=0;bottom=0;right=0;fontStyle=1;" vertex="1" parent="8GTq2mizvaAaw90g1Eo_-17">
          <mxGeometry width="30" height="42" as="geometry">
            <mxRectangle width="30" height="42" as="alternateBounds" />
          </mxGeometry>
        </mxCell>
        <mxCell id="8GTq2mizvaAaw90g1Eo_-19" value="MAHS&#xa;SOKYHIEU" style="shape=partialRectangle;overflow=hidden;connectable=0;fillColor=none;top=0;left=0;bottom=0;right=0;align=left;spacingLeft=6;fontStyle=5;" vertex="1" parent="8GTq2mizvaAaw90g1Eo_-17">
          <mxGeometry x="30" width="220" height="42" as="geometry">
            <mxRectangle width="220" height="42" as="alternateBounds" />
          </mxGeometry>
        </mxCell>
        <mxCell id="8GTq2mizvaAaw90g1Eo_-20" value="" style="shape=partialRectangle;collapsible=0;dropTarget=0;pointerEvents=0;fillColor=none;points=[[0,0.5],[1,0.5]];portConstraint=eastwest;top=0;left=0;right=0;bottom=0;" vertex="1" parent="8GTq2mizvaAaw90g1Eo_-16">
          <mxGeometry y="72" width="250" height="30" as="geometry" />
        </mxCell>
        <mxCell id="8GTq2mizvaAaw90g1Eo_-21" value="FK1" style="shape=partialRectangle;overflow=hidden;connectable=0;fillColor=none;top=0;left=0;bottom=1;right=0;" vertex="1" parent="8GTq2mizvaAaw90g1Eo_-20">
          <mxGeometry width="30" height="30" as="geometry">
            <mxRectangle width="30" height="30" as="alternateBounds" />
          </mxGeometry>
        </mxCell>
        <mxCell id="8GTq2mizvaAaw90g1Eo_-22" value="MACOQUAN" style="shape=partialRectangle;overflow=hidden;connectable=0;fillColor=none;top=0;left=0;bottom=1;right=0;align=left;spacingLeft=6;" vertex="1" parent="8GTq2mizvaAaw90g1Eo_-20">
          <mxGeometry x="30" width="220" height="30" as="geometry">
            <mxRectangle width="220" height="30" as="alternateBounds" />
          </mxGeometry>
        </mxCell>
        <mxCell id="8GTq2mizvaAaw90g1Eo_-23" value="" style="shape=partialRectangle;collapsible=0;dropTarget=0;pointerEvents=0;fillColor=none;points=[[0,0.5],[1,0.5]];portConstraint=eastwest;top=0;left=0;right=0;bottom=0;" vertex="1" parent="8GTq2mizvaAaw90g1Eo_-16">
          <mxGeometry y="102" width="250" height="283" as="geometry" />
        </mxCell>
        <mxCell id="8GTq2mizvaAaw90g1Eo_-24" value="" style="shape=partialRectangle;overflow=hidden;connectable=0;fillColor=none;top=0;left=0;bottom=0;right=0;" vertex="1" parent="8GTq2mizvaAaw90g1Eo_-23">
          <mxGeometry width="30" height="283" as="geometry">
            <mxRectangle width="30" height="283" as="alternateBounds" />
          </mxGeometry>
        </mxCell>
        <mxCell id="8GTq2mizvaAaw90g1Eo_-25" value="NAMHINHTHANH&#xa;STTTRONGHS&#xa;TENLOAIVB&#xa;SOVB&#xa;KYHIEU&#xa;NGAYTHANGNAM&#xa;TENCOQUAN&#xa;TRICHYEU&#xa;NGONNGU&#xa;SOTRANG&#xa;GHICHU&#xa;NGAYTHANGNAMDEN&#xa;SODEN&#xa;CHUCVUNGUOIKY&#xa;HOTENNGUOIKY&#xa;MUCDOKHAN&#xa;DONVINHAN&#xa;TRANGTHAIXULY&#xa;THOIHANGIAIQUYET" style="shape=partialRectangle;overflow=hidden;connectable=0;fillColor=none;top=0;left=0;bottom=0;right=0;align=left;spacingLeft=6;" vertex="1" parent="8GTq2mizvaAaw90g1Eo_-23">
          <mxGeometry x="30" width="220" height="283" as="geometry">
            <mxRectangle width="220" height="283" as="alternateBounds" />
          </mxGeometry>
        </mxCell>
        <mxCell id="8GTq2mizvaAaw90g1Eo_-26" value="Thuộc" style="rhombus;whiteSpace=wrap;html=1;startSize=30;fontStyle=1;" vertex="1" parent="1">
          <mxGeometry x="118" y="128" width="80" height="80" as="geometry" />
        </mxCell>
        <mxCell id="8GTq2mizvaAaw90g1Eo_-48" style="edgeStyle=orthogonalEdgeStyle;rounded=0;orthogonalLoop=1;jettySize=auto;html=1;endArrow=none;endFill=0;" edge="1" parent="1" source="8GTq2mizvaAaw90g1Eo_-46" target="C-vyLk0tnHw3VtMMgP7b-2">
          <mxGeometry relative="1" as="geometry" />
        </mxCell>
        <mxCell id="8GTq2mizvaAaw90g1Eo_-46" value="Thuộc" style="rhombus;whiteSpace=wrap;html=1;startSize=30;fontStyle=1;" vertex="1" parent="1">
          <mxGeometry x="638" y="128" width="80" height="80" as="geometry" />
        </mxCell>
      </root>
    </mxGraphModel>
  </diagram>
</mxfile>
